<svg width="1024" height="1024" viewBox="0 0 1024 1024" fill="none" xmlns="http://www.w3.org/2000/svg">
<rect width="1024" height="1024" fill="url(#paint0_linear_3190_55)"/>
<mask id="mask0_3190_55" style="mask-type:alpha" maskUnits="userSpaceOnUse" x="0" y="0" width="1024" height="1024">
<rect width="1024" height="1024" fill="white"/>
</mask>
<g mask="url(#mask0_3190_55)">
<path d="M1175 798.658C1175 798.658 1125.61 445 1098.73 445C1071.85 445 1048.72 798.658 1024.96 798.658C1001.2 798.658 981.198 445 944.313 445C907.428 445 891.799 798.658 868.667 798.658C845.536 798.658 826.156 445 789.271 445C752.386 445 750.511 798.658 715.501 798.658C680.492 798.658 681.117 445 634.229 445C587.342 445 595.469 798.658 556.083 798.658C516.698 798.658 455.431 445 359.78 445C264.129 445 262.879 798.658 169.104 798.658C75.3285 798.658 72.8278 445 -25.3236 445C-123.475 445 -127.226 811.741 -216 798.658" stroke="black" stroke-width="57"/>
</g>
<defs>
<linearGradient id="paint0_linear_3190_55" x1="0" y1="1024" x2="1024" y2="0" gradientUnits="userSpaceOnUse">
<stop stop-color="#F0F0F0"/>
<stop offset="1" stop-color="#E8E8E8"/>
</linearGradient>
</defs>
</svg>
